<svg xmlns="http://www.w3.org/2000/svg" xmlns:xlink="http://www.w3.org/1999/xlink" width="500" zoomAndPan="magnify" viewBox="0 0 375 374.999991" height="500" preserveAspectRatio="xMidYMid meet" version="1.0"><defs><clipPath id="ac54b87dfe"><path d="M 30 30 L 345 30 L 345 345 L 30 345 Z M 30 30 " clip-rule="nonzero"/></clipPath><clipPath id="3e5cfb226a"><path d="M 67.898438 0 L 375 67.902344 L 307.097656 375 L 0 307.101562 Z M 67.898438 0 " clip-rule="nonzero"/></clipPath><clipPath id="b6fd90af15"><path d="M 221.449219 33.949219 C 136.644531 15.199219 52.699219 68.746094 33.949219 153.550781 C 15.199219 238.355469 68.746094 322.300781 153.550781 341.050781 C 238.351562 359.800781 322.300781 306.253906 341.050781 221.449219 C 359.800781 136.648438 306.253906 52.699219 221.449219 33.949219 Z M 221.449219 33.949219 " clip-rule="nonzero"/></clipPath><clipPath id="e2fa3e556c"><path d="M 0 0 L 315 0 L 315 315 L 0 315 Z M 0 0 " clip-rule="nonzero"/></clipPath><clipPath id="eeb71e8429"><path d="M 37.898438 -30 L 345 37.902344 L 277.097656 345 L -30 277.101562 Z M 37.898438 -30 " clip-rule="nonzero"/></clipPath><clipPath id="4b3ba6a882"><path d="M 191.449219 3.949219 C 106.644531 -14.800781 22.699219 38.746094 3.949219 123.550781 C -14.800781 208.355469 38.746094 292.300781 123.550781 311.050781 C 208.351562 329.800781 292.300781 276.253906 311.050781 191.449219 C 329.800781 106.648438 276.253906 22.699219 191.449219 3.949219 Z M 191.449219 3.949219 " clip-rule="nonzero"/></clipPath><clipPath id="2539ddf272"><rect x="0" width="315" y="0" height="315"/></clipPath><clipPath id="fb0d836eae"><path d="M 40 37 L 335 37 L 335 338 L 40 338 Z M 40 37 " clip-rule="nonzero"/></clipPath><clipPath id="06a8561eea"><path d="M 340.34375 332.242188 L 45.785156 342.832031 L 35.007812 43.027344 L 329.566406 32.4375 Z M 340.34375 332.242188 " clip-rule="nonzero"/></clipPath><clipPath id="d57ae20175"><path d="M 340.34375 332.242188 L 45.785156 342.832031 L 35.007812 43.027344 L 329.566406 32.4375 Z M 340.34375 332.242188 " clip-rule="nonzero"/></clipPath><clipPath id="5c11d44706"><path d="M 48 48 L 327 48 L 327 327 L 48 327 Z M 48 48 " clip-rule="nonzero"/></clipPath><clipPath id="e6468615e8"><path d="M 33.0625 309.039062 L 65.960938 33.0625 L 341.9375 65.960938 L 309.039062 341.9375 Z M 33.0625 309.039062 " clip-rule="nonzero"/></clipPath><clipPath id="8241d21959"><path d="M 49.511719 171.050781 C 40.425781 247.261719 94.839844 316.40625 171.050781 325.488281 C 247.261719 334.574219 316.40625 280.160156 325.488281 203.949219 C 334.574219 127.738281 280.160156 58.59375 203.949219 49.511719 C 127.738281 40.425781 58.59375 94.839844 49.511719 171.050781 Z M 49.511719 171.050781 " clip-rule="nonzero"/></clipPath><clipPath id="4c85b1efb5"><path d="M 0 0 L 279 0 L 279 279 L 0 279 Z M 0 0 " clip-rule="nonzero"/></clipPath><clipPath id="6f96ea4634"><path d="M -14.9375 261.039062 L 17.960938 -14.9375 L 293.9375 17.960938 L 261.039062 293.9375 Z M -14.9375 261.039062 " clip-rule="nonzero"/></clipPath><clipPath id="94555a8bbf"><path d="M 1.511719 123.050781 C -7.574219 199.261719 46.839844 268.40625 123.050781 277.488281 C 199.261719 286.574219 268.40625 232.160156 277.488281 155.949219 C 286.574219 79.738281 232.160156 10.59375 155.949219 1.511719 C 79.738281 -7.574219 10.59375 46.839844 1.511719 123.050781 Z M 1.511719 123.050781 " clip-rule="nonzero"/></clipPath><clipPath id="e21db6b026"><rect x="0" width="279" y="0" height="279"/></clipPath></defs><g clip-path="url(#ac54b87dfe)"><g clip-path="url(#3e5cfb226a)"><g clip-path="url(#b6fd90af15)"><g transform="matrix(1, 0, 0, 1, 30, 30)"><g clip-path="url(#2539ddf272)"><g clip-path="url(#e2fa3e556c)"><g clip-path="url(#eeb71e8429)"><g clip-path="url(#4b3ba6a882)"><path fill="#fdf9f7" d="M 37.898438 -30 L 345 37.902344 L 277.097656 345 L -30 277.101562 Z M 37.898438 -30 " fill-opacity="1" fill-rule="nonzero"/></g></g></g></g></g></g></g></g><g clip-path="url(#fb0d836eae)"><g clip-path="url(#06a8561eea)"><g clip-path="url(#d57ae20175)"><path fill="#0b0019" d="M 334.347656 176.089844 C 335.625 201.261719 330.246094 225.105469 319.695312 247.835938 C 314.035156 260.023438 306.75 271.214844 298.128906 281.578125 C 284.804688 297.597656 268.980469 310.46875 250.585938 320.179688 C 237.28125 327.207031 223.207031 332.210938 208.390625 334.765625 C 200.148438 336.1875 191.789062 337.578125 183.371094 337.136719 C 177.6875 336.832031 171.996094 336.730469 166.300781 336.226562 C 150.414062 334.816406 135.523438 330.273438 121.179688 323.617188 C 110.535156 318.679688 100.847656 312.21875 91.75 304.808594 C 85.746094 299.914062 80.390625 294.40625 75.339844 288.566406 C 73.9375 286.949219 73.769531 284.996094 75.054688 283.976562 C 76.6875 282.683594 78.238281 283.070312 79.597656 284.527344 C 82.367188 287.480469 85.0625 290.488281 87.972656 293.3125 C 104.277344 309.183594 123.378906 320.160156 145.28125 326.265625 C 153.835938 328.644531 162.519531 330.191406 171.421875 330.757812 C 176.066406 331.054688 180.734375 331.382812 185.367188 331.378906 C 190.316406 331.375 195.285156 330.675781 200.214844 330.027344 C 209.785156 328.765625 219.175781 326.597656 228.28125 323.371094 C 243.742188 317.882812 257.96875 310.171875 270.84375 299.921875 C 278.300781 293.980469 285.300781 287.585938 291.511719 280.375 C 302.933594 267.121094 311.882812 252.335938 318.28125 236.027344 C 322.105469 226.28125 324.859375 216.257812 326.601562 205.9375 C 327.308594 201.765625 327.652344 197.566406 328.144531 193.378906 C 329.386719 182.816406 329.109375 172.222656 327.535156 161.820312 C 325.335938 147.289062 321.273438 133.183594 314.777344 119.867188 C 309.695312 109.449219 303.53125 99.75 296.042969 90.917969 C 287.226562 80.527344 277.09375 71.65625 265.527344 64.371094 C 250.511719 54.917969 234.328125 48.65625 216.855469 45.582031 C 205.265625 43.539062 193.585938 42.707031 181.902344 43.832031 C 160.660156 45.882812 140.605469 52.015625 122.09375 62.773438 C 110.054688 69.773438 99.214844 78.273438 89.457031 88.269531 C 75.71875 102.34375 65.296875 118.511719 57.753906 136.585938 C 52.265625 149.734375 48.816406 163.460938 47.363281 177.625 C 46.671875 184.324219 46.304688 191.089844 46.59375 197.839844 C 47.285156 213.859375 50.070312 229.472656 55.941406 244.464844 C 56.3125 245.40625 56.746094 246.34375 56.976562 247.316406 C 57.28125 248.597656 57.167969 250.042969 55.722656 250.394531 C 54.390625 250.722656 52.679688 251.601562 51.671875 249.535156 C 50.089844 246.300781 48.886719 242.917969 47.824219 239.511719 C 45.160156 230.992188 42.9375 222.351562 41.949219 213.445312 C 40.90625 204.105469 40.164062 194.695312 40.722656 185.339844 C 42.378906 157.644531 50.597656 131.960938 65.628906 108.554688 C 71.839844 98.894531 79.003906 89.945312 87.203125 81.921875 C 102.222656 67.230469 119.398438 55.75 139.019531 48.011719 C 148.390625 44.320312 158.023438 41.585938 167.890625 39.710938 C 178.261719 37.734375 188.816406 37.195312 199.292969 37.589844 C 217.878906 38.28125 235.75 42.644531 252.667969 50.496094 C 263.800781 55.664062 274.09375 62.191406 283.5 70.117188 C 306.488281 89.480469 321.632812 113.828125 329.570312 142.707031 C 331.070312 148.164062 332.066406 153.769531 333.097656 159.34375 C 334.105469 164.867188 334.097656 170.488281 334.347656 176.089844 Z M 334.347656 176.089844 " fill-opacity="1" fill-rule="nonzero"/></g></g></g><g clip-path="url(#5c11d44706)"><g clip-path="url(#e6468615e8)"><g clip-path="url(#8241d21959)"><g transform="matrix(1, 0, 0, 1, 48, 48)"><g clip-path="url(#e21db6b026)"><g clip-path="url(#4c85b1efb5)"><g clip-path="url(#6f96ea4634)"><g clip-path="url(#94555a8bbf)"><path fill="#ffcc00" d="M -14.9375 261.039062 L 17.960938 -14.9375 L 293.9375 17.960938 L 261.039062 293.9375 Z M -14.9375 261.039062 " fill-opacity="1" fill-rule="nonzero"/></g></g></g></g></g></g></g></g></svg>